<?xml version="1.0" standalone="no"?>
<!DOCTYPE svg PUBLIC "-//W3C//DTD SVG 20010904//EN"
 "http://www.w3.org/TR/2001/REC-SVG-20010904/DTD/svg10.dtd">
<svg version="1.0" xmlns="http://www.w3.org/2000/svg"
 width="1024.000000pt" height="1024.000000pt" viewBox="0 0 1024.000000 1024.000000"
 preserveAspectRatio="xMidYMid meet">
<metadata>
Created by potrace 1.16, written by Peter Selinger 2001-2019
</metadata>
<g transform="translate(0.000000,1024.000000) scale(0.100000,-0.100000)"
fill="#000000" stroke="none">
<path d="M1980 9908 c-204 -140 -381 -300 -459 -417 -86 -127 -230 -472 -285
-685 -57 -218 -58 -352 -6 -562 17 -69 29 -128 26 -131 -10 -10 -56 27 -76 60
-11 18 -36 79 -55 137 -45 134 -51 143 -65 106 -27 -73 -92 -297 -112 -389
-19 -87 -22 -133 -22 -312 0 -378 39 -555 175 -784 28 -47 30 -52 11 -42 -11
6 -29 11 -40 11 -11 0 -60 26 -108 58 -49 32 -95 62 -102 66 -21 12 23 -90 75
-177 149 -248 535 -601 728 -667 45 -15 52 -22 79 -75 39 -76 129 -171 202
-214 86 -51 89 -54 143 -167 l50 -104 -46 -107 c-114 -272 -210 -620 -252
-918 -166 -1163 225 -2343 1050 -3166 80 -80 186 -179 235 -220 49 -40 91 -76
94 -79 14 -14 129 -100 134 -100 11 0 6 953 -4 991 -6 19 -21 46 -35 59 -14
13 -25 27 -25 30 0 4 30 22 67 40 251 124 304 456 103 644 -53 50 -128 91
-183 101 -20 4 -41 12 -46 19 -9 11 -188 860 -418 1988 l-36 177 28 33 c49 58
65 105 65 197 0 81 2 86 51 180 28 53 88 152 133 221 77 116 106 154 261 345
l58 70 -7 375 c-3 206 -6 428 -6 493 l0 118 -44 -35 c-47 -39 -70 -46 -62 -18
26 91 86 312 86 318 0 3 -36 -47 -80 -112 -78 -117 -192 -254 -211 -254 -19 0
-7 33 60 162 91 175 112 243 118 390 13 266 -42 400 -255 629 -127 136 -147
176 -146 293 l0 89 -42 -47 c-24 -26 -55 -72 -71 -104 -26 -53 -28 -65 -27
-180 0 -67 -3 -119 -7 -115 -4 4 -21 51 -37 103 -97 303 -172 442 -414 763
-95 126 -146 221 -175 327 -25 90 -25 519 -1 593 9 26 13 47 10 47 -4 0 -41
-23 -82 -52z m1260 -3403 l0 -256 -43 -47 c-62 -67 -185 -218 -232 -285 -22
-31 -43 -57 -46 -57 -4 0 -10 48 -13 107 -4 59 -12 115 -17 125 -7 13 -4 29
12 59 40 79 51 124 59 244 l9 120 128 122 c70 68 131 123 136 123 4 0 7 -115
7 -255z m-620 -102 c0 -102 -83 -218 -202 -280 -48 -25 -63 -28 -153 -28 -106
0 -156 16 -213 69 -27 23 -56 75 -48 83 5 5 594 201 609 202 4 1 7 -20 7 -46z
m80 -505 c-1 -31 -32 -142 -49 -177 -53 -102 -133 -127 -228 -69 -29 18 -53
36 -53 41 0 5 20 34 44 66 37 48 51 59 92 69 27 7 76 28 109 46 66 37 85 42
85 24z m-312 -473 c2 -2 -4 -29 -14 -60 -34 -118 -4 -207 96 -284 30 -22 45
-41 44 -55 -1 -12 -19 -93 -42 -181 -84 -333 -114 -641 -93 -965 30 -448 126
-816 318 -1210 47 -96 80 -180 88 -220 26 -126 70 -195 176 -272 44 -33 108
-96 174 -175 l105 -124 0 -261 0 -260 -57 50 c-149 129 -356 357 -499 549
-551 737 -791 1702 -654 2630 37 254 116 544 219 810 l32 83 52 -26 c29 -15
53 -28 55 -29z m272 -24 c0 -24 -94 -231 -105 -231 -21 0 -64 58 -71 95 -8 44
9 88 48 120 23 19 41 25 79 25 27 0 49 -4 49 -9z m50 -1337 c49 -280 104 -588
121 -684 17 -96 42 -238 56 -315 13 -77 29 -157 34 -177 11 -45 -8 -100 -40
-118 -20 -10 -24 -6 -52 57 -125 276 -213 597 -250 913 -18 153 -16 477 5 650
17 148 25 194 32 187 3 -2 45 -233 94 -513z m555 -1383 c149 -67 147 -285 -2
-347 -45 -19 -128 -18 -148 2 -21 21 -88 120 -110 163 -15 30 -16 39 -4 73 14
43 86 114 122 121 51 10 105 5 142 -12z"/>
<path d="M5490 6799 c0 -569 -4 -1040 -9 -1047 -7 -12 -121 -52 -148 -52 -10
0 -13 219 -13 1060 l0 1060 -45 0 c-48 0 -122 -11 -412 -63 -101 -18 -186 -36
-190 -40 -4 -4 -7 -543 -7 -1197 l-1 -1190 -30 1 c-16 0 -75 6 -130 12 l-100
12 -3 1143 c-1 628 -4 1142 -7 1142 -11 0 -202 -72 -296 -113 -142 -61 -365
-173 -376 -189 -4 -7 -10 -508 -13 -1113 l-5 -1099 -87 -51 c-47 -27 -120 -70
-162 -94 -41 -24 -80 -48 -85 -55 -5 -6 -14 -69 -20 -140 -11 -130 -15 -146
-32 -146 -15 0 -303 -101 -312 -109 -4 -4 13 -52 39 -107 25 -54 55 -119 66
-144 11 -25 64 -142 118 -260 54 -118 149 -330 213 -470 63 -140 148 -327 188
-415 l74 -160 6 -865 c6 -926 5 -911 59 -1069 79 -236 262 -447 464 -536 97
-43 174 -59 286 -59 123 0 200 18 310 72 230 113 396 333 470 623 21 82 22 99
20 750 -1 628 0 666 17 681 19 17 133 78 146 78 4 0 7 -529 7 -1175 l0 -1175
153 0 c282 0 577 38 877 112 163 40 445 129 461 145 11 12 12 47 10 452 -1
294 -4 372 -13 368 -7 -3 -74 -32 -148 -65 -205 -89 -493 -182 -605 -194 l-30
-3 -3 860 c-1 473 0 869 3 881 3 15 20 25 66 38 132 36 240 112 324 226 36 50
37 50 178 94 262 83 476 146 492 146 13 0 15 -138 15 -1335 0 -984 3 -1335 11
-1335 18 0 244 126 364 203 131 85 311 215 342 249 l23 24 2 1214 3 1213 129
41 c71 23 131 46 133 52 2 7 -44 71 -102 144 -58 72 -119 150 -135 172 l-30
41 0 919 c0 601 3 918 10 918 5 0 38 -42 71 -92 275 -413 420 -762 498 -1195
31 -173 42 -310 42 -518 0 -421 -60 -743 -207 -1112 l-64 -162 0 -658 0 -657
41 39 c74 72 281 337 374 480 329 501 515 1012 597 1640 18 136 18 705 0 840
-60 458 -165 824 -343 1195 -349 727 -928 1330 -1641 1708 l-118 63 0 -1231
c0 -676 -3 -1230 -7 -1230 -5 1 -42 44 -84 98 -42 53 -148 187 -236 297 -87
110 -191 242 -232 293 -40 50 -78 92 -84 92 -20 0 -128 -28 -196 -49 -35 -12
-79 -21 -99 -21 -40 0 -116 40 -132 70 -11 20 -15 1250 -4 1250 4 0 48 -9 98
-21 190 -44 409 -120 600 -209 48 -22 90 -39 92 -37 2 2 4 185 5 408 0 353 -2
405 -15 415 -23 16 -280 100 -412 134 -297 77 -527 109 -831 117 l-243 6 0
-1034z m575 816 c271 -36 719 -147 763 -190 10 -9 13 -56 12 -201 0 -103 -2
-190 -5 -192 -2 -2 -66 18 -142 46 -186 67 -475 139 -618 154 l-30 3 -5 -700
-5 -700 -194 -27 c-107 -15 -196 -27 -197 -25 -7 7 -16 1731 -10 1791 l8 69
151 -6 c84 -4 206 -13 272 -22z m-897 -992 l-3 -997 -56 -32 c-132 -78 -213
-186 -225 -303 -7 -64 -16 -72 -50 -47 -19 14 -19 39 -21 1153 -2 667 1 1144
6 1152 8 13 263 67 329 70 l22 1 -2 -997z m-917 -105 c1 -475 3 -928 4 -1008
2 -80 -1 -154 -5 -166 -6 -16 -46 -33 -186 -78 -98 -32 -184 -60 -191 -63 -11
-4 -13 181 -11 998 l3 1004 35 18 c100 51 327 156 338 156 9 1 12 -178 13
-861z m3394 495 c372 -254 729 -612 962 -963 93 -141 137 -218 219 -381 259
-517 398 -1150 381 -1724 -15 -478 -122 -924 -328 -1365 -105 -225 -339 -618
-360 -605 -5 4 -9 150 -9 353 1 271 4 355 15 382 7 19 41 101 74 181 95 232
165 495 197 740 21 168 30 553 15 716 -58 630 -274 1176 -664 1678 -78 100
-247 293 -258 294 -17 2 -22 -214 -28 -1108 l-6 -974 -80 99 c-44 54 -92 115
-107 134 -15 19 -77 98 -137 175 l-111 140 0 1188 0 1188 58 -37 c31 -20 107
-70 167 -111z m-1558 -1342 c37 -49 104 -137 147 -197 44 -60 117 -158 161
-219 334 -449 597 -805 719 -972 77 -105 77 -106 -8 -117 -99 -13 -403 -87
-521 -127 -66 -23 -178 -70 -248 -106 -185 -94 -261 -174 -331 -345 -9 -24
-20 -36 -28 -32 -18 7 -967 1531 -991 1591 -28 68 -28 166 0 219 54 103 208
203 408 267 142 46 221 63 500 111 127 22 116 26 192 -73z m522 17 c11 -13
114 -144 230 -293 116 -148 270 -344 341 -435 72 -91 169 -214 216 -275 176
-226 291 -373 379 -485 241 -305 336 -431 333 -442 -2 -6 -65 -30 -139 -54
-73 -23 -199 -64 -279 -89 -80 -26 -266 -85 -415 -132 -148 -46 -374 -118
-501 -159 l-231 -74 -61 -73 c-33 -40 -88 -92 -123 -115 -98 -66 -167 -84
-354 -91 l-160 -6 -818 -413 c-449 -226 -820 -412 -823 -412 -4 0 -94 185 -94
195 0 2 -22 50 -49 107 -50 106 -151 324 -191 413 -12 28 -38 84 -57 125 -74
160 -543 1177 -585 1270 -16 36 -48 105 -71 153 -24 52 -37 91 -31 97 10 9
159 70 173 70 5 0 11 -37 13 -82 4 -78 8 -91 72 -223 58 -119 317 -665 448
-945 22 -47 98 -206 168 -355 70 -148 158 -335 195 -415 37 -80 73 -151 80
-158 12 -14 29 -7 380 163 150 72 520 251 805 387 69 33 180 87 248 119 l123
58 97 -6 c191 -11 342 59 457 211 17 22 121 60 747 269 400 134 731 246 735
250 7 8 -6 27 -114 167 -40 52 -152 199 -250 325 -97 127 -283 367 -413 535
-130 168 -287 373 -350 455 -139 184 -198 247 -273 289 -67 38 -66 39 33 72
83 28 86 28 109 2z m-271 -82 c163 -90 159 -86 356 -345 74 -97 158 -207 188
-246 30 -38 104 -135 164 -215 60 -80 141 -185 179 -235 38 -49 92 -120 120
-156 27 -36 72 -95 99 -130 162 -210 207 -274 197 -277 -7 -2 -49 18 -94 44
-45 26 -122 71 -172 100 -90 51 -90 52 -221 225 -521 693 -974 1302 -974 1310
0 13 -12 19 158 -75z m-1775 -337 c138 -20 199 -48 293 -133 61 -54 91 -98
292 -426 82 -135 214 -348 292 -475 78 -126 179 -288 223 -360 191 -308 215
-350 208 -358 -5 -5 -46 1 -92 12 -131 31 -200 35 -339 17 -145 -20 -243 -43
-355 -86 -116 -45 -327 -154 -504 -259 -84 -51 -160 -91 -168 -89 -8 2 -91
154 -184 338 -399 785 -719 1430 -719 1447 0 13 35 38 118 85 282 160 457 228
727 281 91 18 121 19 208 6z m-1040 -621 c30 -62 215 -435 409 -828 195 -393
360 -730 368 -748 10 -26 12 -76 7 -228 -6 -194 -11 -224 -29 -206 -8 8 -136
269 -243 497 -18 39 -68 142 -110 230 -42 88 -94 196 -115 240 -21 44 -75 157
-120 250 -45 94 -95 197 -110 230 -15 33 -53 112 -85 175 -97 195 -96 192 -80
304 21 150 31 196 44 196 5 0 33 -51 64 -112z m3916 -625 c183 -111 231 -143
231 -152 0 -4 -33 -17 -72 -30 -40 -12 -345 -106 -678 -210 l-605 -187 -26
-55 c-24 -49 -96 -129 -117 -129 -35 0 -84 127 -84 218 -1 121 91 248 243 337
79 46 240 115 359 153 162 53 561 143 599 135 13 -2 80 -38 150 -80z m421
-1611 l0 -1129 -22 -20 c-25 -23 -405 -283 -413 -283 -3 0 -5 549 -5 1220 l0
1220 43 11 c23 6 112 32 197 59 85 26 165 48 178 49 l22 1 0 -1128z m-2149
1048 c85 -16 195 -76 273 -151 89 -85 87 -99 -18 -99 -41 0 -96 5 -123 11
l-48 11 -674 -336 c-371 -185 -680 -336 -687 -336 -6 0 -14 6 -17 13 -9 24 -6
197 4 202 5 4 9 50 9 104 0 112 -3 108 110 178 336 209 671 359 880 393 41 6
82 13 90 15 36 7 152 4 201 -5z m290 -600 l39 0 0 -980 0 -980 28 0 c95 0 353
63 616 151 82 27 150 48 152 46 6 -6 8 -82 6 -238 l-2 -156 -127 -41 c-218
-69 -388 -109 -583 -136 -113 -16 -353 -36 -436 -36 l-51 0 -5 1103 c-4 810
-3 1109 6 1127 7 17 44 42 111 77 126 67 143 73 179 68 16 -3 46 -5 67 -5z
m-2026 -487 c180 -397 183 -403 200 -403 9 0 29 7 45 15 l28 15 4 -173 c3
-164 4 -175 30 -227 80 -161 228 -235 351 -176 55 27 121 97 154 164 25 51 28
69 31 182 2 69 1 207 -3 308 -7 171 -9 184 -27 191 -16 6 19 28 171 109 105
56 196 102 201 102 7 0 10 -206 10 -584 0 -608 -3 -659 -45 -776 -38 -108
-170 -281 -284 -374 -29 -24 -90 -59 -135 -77 -74 -30 -90 -33 -186 -33 -90 0
-115 4 -175 28 -90 34 -161 83 -232 160 -110 118 -194 270 -233 421 -19 74
-20 110 -20 712 0 348 4 633 8 633 5 0 53 -98 107 -217z m684 -540 c-9 -173
-39 -240 -112 -258 -23 -6 -33 -2 -61 29 -57 60 -73 119 -80 301 -4 91 -3 166
2 173 5 8 63 42 128 77 l119 63 6 -126 c3 -70 3 -187 -2 -259z"/>
</g>
</svg>
